<svg width="41" height="41" viewBox="0 0 41 41" fill="none" xmlns="http://www.w3.org/2000/svg">
<g clip-path="url(#clip0_2601_93)">
<g filter="url(#filter0_d_2601_93)">
<path d="M20.5 41C31.8218 41 41 31.8218 41 20.5C41 9.17816 31.8218 0 20.5 0C9.17816 0 0 9.17816 0 20.5C0 31.8218 9.17816 41 20.5 41Z" fill="url(#paint0_linear_2601_93)"/>
</g>
<path d="M21.8176 28.4617L28.4587 21.8206L29.3425 22.7044L22.7014 29.3455L21.8176 28.4617Z" fill="white"/>
<path d="M25.5833 30.9998C22.5966 30.9998 20.1666 28.5698 20.1666 25.5832C20.1666 22.5965 22.5966 20.1665 25.5833 20.1665C28.57 20.1665 31 22.5965 31 25.5832C31 28.5698 28.57 30.9998 25.5833 30.9998ZM25.5833 21.4165C23.2858 21.4165 21.4166 23.2857 21.4166 25.5832C21.4166 27.8807 23.2858 29.7498 25.5833 29.7498C27.8808 29.7498 29.75 27.8807 29.75 25.5832C29.75 23.2857 27.8808 21.4165 25.5833 21.4165Z" fill="white"/>
<path d="M18.0833 28.5C18.0433 28.5 18.0033 28.4958 17.9642 28.4883C17.8942 28.475 11 27.0508 11 19.275V14.125C11 13.8667 11.1583 13.635 11.3992 13.5425L17.8575 11.0425C18.0025 10.9858 18.1633 10.9858 18.3083 11.0425L24.7667 13.5425C25.0083 13.635 25.1667 13.8667 25.1667 14.125V17.875C25.1667 18.22 24.8867 18.5 24.5417 18.5C24.1967 18.5 23.9167 18.22 23.9167 17.875V14.5533L18.0833 12.2958L12.25 14.5533V19.275C12.25 25.5733 17.255 27.0358 18.0933 27.2375C18.425 27.1725 18.76 27.3875 18.83 27.7258C18.8983 28.0633 18.68 28.3942 18.3417 28.4633L18.1842 28.4917C18.1508 28.4975 18.1175 28.5 18.0833 28.5Z" fill="white"/>
</g>
<defs>
<filter id="filter0_d_2601_93" x="-25" y="-15" width="91" height="91" filterUnits="userSpaceOnUse" color-interpolation-filters="sRGB">
<feFlood flood-opacity="0" result="BackgroundImageFix"/>
<feColorMatrix in="SourceAlpha" type="matrix" values="0 0 0 0 0 0 0 0 0 0 0 0 0 0 0 0 0 0 127 0" result="hardAlpha"/>
<feOffset dy="10"/>
<feGaussianBlur stdDeviation="12.5"/>
<feColorMatrix type="matrix" values="0 0 0 0 0.980392 0 0 0 0 0.0392157 0 0 0 0 0.2 0 0 0 0.1 0"/>
<feBlend mode="normal" in2="BackgroundImageFix" result="effect1_dropShadow_2601_93"/>
<feBlend mode="normal" in="SourceGraphic" in2="effect1_dropShadow_2601_93" result="shape"/>
</filter>
<linearGradient id="paint0_linear_2601_93" x1="6.5426" y1="5.3947" x2="56.7434" y2="10.1915" gradientUnits="userSpaceOnUse">
<stop stop-color="#FFE600"/>
<stop offset="1" stop-color="#EFA83D"/>
</linearGradient>
<clipPath id="clip0_2601_93">
<rect width="41" height="41" fill="white"/>
</clipPath>
</defs>
</svg>
